<?xml version="1.0" encoding="UTF-8" standalone="no"?>
<svg
   height="24px"
   viewBox="0 -960 960 960"
   width="24px"
   fill="#e3e3e3"
   version="1.1"
   id="svg1"
   sodipodi:docname="battery_0.svg"
   inkscape:version="1.4.3 (0d15f75042, 2025-12-25)"
   xmlns:inkscape="http://www.inkscape.org/namespaces/inkscape"
   xmlns:sodipodi="http://sodipodi.sourceforge.net/DTD/sodipodi-0.dtd"
   xmlns="http://www.w3.org/2000/svg"
   xmlns:svg="http://www.w3.org/2000/svg">
  <defs
     id="defs1" />
  <sodipodi:namedview
     id="namedview1"
     pagecolor="#ffffff"
     bordercolor="#000000"
     borderopacity="0.25"
     inkscape:showpageshadow="2"
     inkscape:pageopacity="0.0"
     inkscape:pagecheckerboard="0"
     inkscape:deskcolor="#d1d1d1"
     showgrid="true"
     inkscape:zoom="23.540763"
     inkscape:cx="8.1560653"
     inkscape:cy="13.274846"
     inkscape:window-width="1920"
     inkscape:window-height="1008"
     inkscape:window-x="0"
     inkscape:window-y="0"
     inkscape:window-maximized="1"
     inkscape:current-layer="svg1">
    <inkscape:grid
       id="grid1"
       units="px"
       originx="0"
       originy="0"
       spacingx="40"
       spacingy="40"
       empcolor="#0099e5"
       empopacity="0.30196078"
       color="#0099e5"
       opacity="0.14901961"
       empspacing="5"
       enabled="true"
       visible="true" />
  </sodipodi:namedview>
  <path
     id="path1"
     d="M 160 -720 C 126.66667 -720 98.333333 -708.33333 75 -685 C 51.666667 -661.66667 40 -633.33333 40 -600 L 40 -360 C 40 -326.66667 51.666667 -298.33333 75 -275 C 98.333333 -251.66667 126.66667 -240 160 -240 L 223.67188 -240 C 221.23072 -253.19347 220.00163 -266.58259 220 -280 C 220.002 -293.41741 221.23072 -306.80653 223.67188 -320 L 160 -320 C 148.66667 -320 139.15104 -323.81769 131.48438 -331.48438 C 123.81771 -339.15104 120 -348.66667 120 -360 L 120 -600 C 120 -611.33333 123.81771 -620.84898 131.48438 -628.51562 C 139.15104 -636.18229 148.66667 -640 160 -640 L 700 -640 C 711.33333 -640 720.84897 -636.18229 728.51562 -628.51562 C 736.18229 -620.84898 740 -611.33333 740 -600 L 740 -360 C 740 -348.66667 736.18229 -339.15102 728.51562 -331.48438 C 720.84897 -323.81771 711.33333 -320 700 -320 L 656.32812 -320 C 658.76929 -306.80653 659.99837 -293.41741 660 -280 C 659.998 -266.58259 658.76929 -253.19347 656.32812 -240 L 700 -240 C 733.33333 -240 761.66667 -251.66667 785 -275 C 808.33333 -298.33333 820 -326.66667 820 -360 L 820 -600 C 820 -633.33333 808.33333 -661.66667 785 -685 C 761.66667 -708.33333 733.33333 -720 700 -720 L 160 -720 z M 860 -580 L 860 -380 L 880 -380 C 891.33333 -380 900.84897 -383.81771 908.51562 -391.48438 C 916.18229 -399.15104 920 -408.66667 920 -420 L 920 -540 C 920 -551.33333 916.18229 -560.84898 908.51562 -568.51562 C 900.84898 -576.18229 891.33333 -580 880 -580 L 860 -580 z M 400 -510 L 400 -270 L 480 -270 L 480 -510 L 400 -510 z M 440 -210 C 428.66667 -210 419.15104 -206.1823 411.48438 -198.51562 C 403.8177 -190.84895 400 -181.33333 400 -170 C 400 -158.66667 403.8177 -149.15104 411.48438 -141.48438 C 419.15105 -133.8177 428.66667 -130 440 -130 C 451.33333 -130 460.84896 -133.8177 468.51562 -141.48438 C 476.1823 -149.15105 480 -158.66667 480 -170 C 480 -181.33333 476.1823 -190.84896 468.51562 -198.51562 C 460.84896 -206.1823 451.33333 -210 440 -210 z " />
</svg>
