<?xml version="1.0" encoding="UTF-8" standalone="no"?>
<svg
   height="24px"
   viewBox="0 -960 960 960"
   width="24px"
   fill="#e3e3e3"
   version="1.1"
   id="svg1"
   sodipodi:docname="battery_3.svg"
   inkscape:version="1.4.3 (0d15f75042, 2025-12-25)"
   xmlns:inkscape="http://www.inkscape.org/namespaces/inkscape"
   xmlns:sodipodi="http://sodipodi.sourceforge.net/DTD/sodipodi-0.dtd"
   xmlns="http://www.w3.org/2000/svg"
   xmlns:svg="http://www.w3.org/2000/svg">
  <defs
     id="defs1" />
  <sodipodi:namedview
     id="namedview1"
     pagecolor="#ffffff"
     bordercolor="#000000"
     borderopacity="0.25"
     inkscape:showpageshadow="2"
     inkscape:pageopacity="0.0"
     inkscape:pagecheckerboard="0"
     inkscape:deskcolor="#d1d1d1"
     inkscape:zoom="33.291667"
     inkscape:cx="6.4580726"
     inkscape:cy="12.811014"
     inkscape:window-width="1920"
     inkscape:window-height="1008"
     inkscape:window-x="0"
     inkscape:window-y="0"
     inkscape:window-maximized="1"
     inkscape:current-layer="svg1">
    <sodipodi:guide
       position="400,-495.311"
       inkscape:color="rgb(167,0,255)"
       inkscape:label="Measure"
       orientation="-0,-1"
       id="guide1"
       inkscape:locked="false" />
    <sodipodi:guide
       position="400,-495.311"
       inkscape:color="rgb(167,0,255)"
       inkscape:label="Base"
       orientation="-0.838577,0.544783"
       id="guide2"
       inkscape:locked="false" />
    <sodipodi:guide
       position="400,-495.311"
       inkscape:color="rgb(167,0,255)"
       inkscape:label=""
       orientation="-0,1"
       id="guide3"
       inkscape:locked="false" />
    <sodipodi:guide
       position="400,-495.311"
       inkscape:color="rgb(167,0,255)"
       inkscape:label="Start"
       orientation="1,0"
       id="guide4"
       inkscape:locked="false" />
    <sodipodi:guide
       position="319.93,-495.311"
       inkscape:color="rgb(167,0,255)"
       inkscape:label="End"
       orientation="-0,1"
       id="guide5"
       inkscape:locked="false" />
    <sodipodi:guide
       position="319.93,-495.311"
       inkscape:color="rgb(167,0,255)"
       inkscape:label=""
       orientation="1,0"
       id="guide6"
       inkscape:locked="false" />
  </sodipodi:namedview>
  <path
     d="m 160,-240 c -33.33333,0 -61.666667,-11.66667 -85,-35 -23.333333,-23.33333 -35,-51.66667 -35,-85 v -240 c 0,-33.33333 11.666667,-61.66667 35,-85 23.333333,-23.33333 51.66667,-35 85,-35 h 540 c 33.33333,0 61.66667,11.66667 85,35 23.33333,23.33333 35,51.66667 35,85 v 240 c 0,33.33333 -11.66667,61.66667 -35,85 -23.33333,23.33333 -51.66667,35 -85,35 z m 240,-80 h 300 c 11.33333,0 20.83333,-3.83333 28.5,-11.5 7.66667,-7.66667 11.5,-17.16667 11.5,-28.5 v -240 c 0,-11.33333 -3.83333,-20.83333 -11.5,-28.5 -7.66667,-7.66667 -17.16667,-11.5 -28.5,-11.5 H 320 Z m 460,-60 v -200 h 20 c 11.33333,0 20.83333,3.83333 28.5,11.5 7.66667,7.66667 11.5,17.16667 11.5,28.5 v 120 c 0,11.33333 -3.83333,20.83333 -11.5,28.5 -7.66667,7.66667 -17.16667,11.5 -28.5,11.5 z"
     id="path1"
     sodipodi:nodetypes="ssssssssssssscssssssccccssssssc" />
</svg>
